<svg width="31" height="30" viewBox="0 0 31 30" fill="none" xmlns="http://www.w3.org/2000/svg">
<path d="M0.845734 15.8464C0.281884 15.5488 -4.34961e-05 15.1729 -4.3545e-05 14.7187C-4.35938e-05 14.2645 0.281883 13.8886 0.845734 13.591L24.7977 13.591L24.6332 13.4265C20.7567 10.4506 18.2194 6.65249 17.0212 2.03206C16.7941 1.20194 16.6806 0.732068 16.6806 0.62243C16.6806 0.207374 17.076 -0.000155413 17.867 -0.000155469C18.3134 -0.000155501 18.6031 0.0468339 18.7363 0.140809C18.8694 0.234784 18.9712 0.469722 19.0417 0.845622C19.12 1.11188 19.1983 1.43297 19.2766 1.80886C19.9501 4.5498 21.2344 6.99315 23.1296 9.13891C25.0326 11.2768 27.3193 12.8744 29.9898 13.9316C30.5536 14.1587 30.8904 14.3663 31 14.5542C31 15.0398 30.6633 15.3569 29.9898 15.5057C27.3193 16.5629 25.0326 18.1605 23.1296 20.2984C21.2344 22.4442 19.9501 24.8875 19.2766 27.6285C19.2375 27.746 19.1983 27.9143 19.1592 28.1336C19.12 28.3607 19.0926 28.5134 19.0769 28.5917C19.0534 28.6622 19.0143 28.7758 18.9595 28.9324C18.9046 29.0812 18.8381 29.183 18.7598 29.2378C18.6893 29.2926 18.5796 29.3396 18.4308 29.3788C18.2742 29.4179 18.0863 29.4375 17.867 29.4375C17.076 29.4375 16.6806 29.23 16.6806 28.8149C16.6806 28.7053 16.7941 28.2354 17.0212 27.4053C18.1489 22.9336 20.6862 19.1355 24.6332 16.0108L24.7977 15.8464L0.845734 15.8464Z" fill="white"/>
</svg>
