<svg width="14" height="14" viewBox="0 0 14 14" fill="none" xmlns="http://www.w3.org/2000/svg">
<path d="M0.374946 7.03034C0.124792 6.89831 -0.000283922 6.73154 -0.000283944 6.53003C-0.000283965 6.32852 0.124792 6.16175 0.374946 6.02972L11.0012 6.02972L10.9283 5.95676C9.20849 4.63651 8.0828 2.95146 7.55122 0.901592C7.45047 0.533311 7.40009 0.324851 7.40009 0.27621C7.40009 0.0920701 7.57554 -5.14771e-07 7.92645 -5.39703e-07C8.12449 -5.53774e-07 8.25304 0.0208458 8.31211 0.0625376C8.37117 0.10423 8.41634 0.20846 8.44761 0.375229C8.48235 0.493356 8.51709 0.635805 8.55184 0.802573C8.85063 2.01859 9.42042 3.10259 10.2612 4.05456C11.1055 5.00305 12.12 5.71182 13.3047 6.18086C13.5549 6.28161 13.7043 6.37368 13.7529 6.45707C13.7529 6.67248 13.6035 6.81319 13.3047 6.8792C12.12 7.34824 11.1055 8.057 10.2612 9.0055C9.42042 9.95747 8.85063 11.0415 8.55184 12.2575C8.53447 12.3096 8.51709 12.3843 8.49972 12.4816C8.48235 12.5823 8.47019 12.6501 8.46324 12.6848C8.45282 12.7161 8.43545 12.7665 8.41113 12.836C8.38681 12.902 8.35727 12.9471 8.32253 12.9715C8.29126 12.9958 8.24262 13.0166 8.17661 13.034C8.10712 13.0514 8.02374 13.0601 7.92646 13.0601C7.57555 13.0601 7.40009 12.968 7.40009 12.7838C7.40009 12.7352 7.45047 12.5267 7.55123 12.1585C8.05153 10.1746 9.17722 8.48956 10.9283 7.1033L11.0012 7.03033L0.374946 7.03034Z" fill="white"/>
</svg>
