<svg width="66" height="66" viewBox="0 0 66 66" fill="none" xmlns="http://www.w3.org/2000/svg">
<circle cx="33" cy="33" r="33" fill="#D9D9D9"/>
<path d="M18.8457 33.8466C18.2819 33.549 18 33.1731 18 32.7189C18 32.2647 18.2819 31.8888 18.8457 31.5912L42.7977 31.5912L42.6332 31.4268C38.7567 28.4509 36.2194 24.6527 35.0212 20.0323C34.7941 19.2022 34.6806 18.7323 34.6806 18.6227C34.6806 18.2076 35.076 18.0001 35.867 18.0001C36.3134 18.0001 36.6031 18.0471 36.7363 18.1411C36.8694 18.235 36.9712 18.47 37.0417 18.8459C37.12 19.1121 37.1983 19.4332 37.2766 19.8091C37.9501 22.55 39.2344 24.9934 41.1296 27.1392C43.0326 29.2771 45.3193 30.8747 47.9898 31.9319C48.5536 32.159 48.8904 32.3665 49 32.5545C49 33.04 48.6633 33.3572 47.9898 33.506C45.3193 34.5632 43.0326 36.1607 41.1296 38.2987C39.2344 40.4444 37.9501 42.8878 37.2766 45.6287C37.2375 45.7462 37.1983 45.9146 37.1592 46.1338C37.12 46.3609 37.0926 46.5137 37.0769 46.592C37.0534 46.6625 37.0143 46.776 36.9595 46.9326C36.9046 47.0814 36.8381 47.1832 36.7598 47.238C36.6893 47.2929 36.5796 47.3399 36.4308 47.379C36.2742 47.4182 36.0863 47.4377 35.867 47.4377C35.076 47.4377 34.6806 47.2302 34.6806 46.8152C34.6806 46.7055 34.7941 46.2356 35.0212 45.4055C36.1489 40.9339 38.6862 37.1357 42.6332 34.0111L42.7977 33.8466L18.8457 33.8466Z" fill="black"/>
</svg>
