<svg width="417" height="411" viewBox="0 0 417 411" fill="none" xmlns="http://www.w3.org/2000/svg">
<path d="M171.516 366.157L174.122 366.592C174.151 367.367 174.311 368.071 174.602 368.703C174.885 369.333 175.268 369.887 175.75 370.363C176.224 370.846 176.774 371.24 177.4 371.546C178.026 371.852 178.696 372.064 179.41 372.184C180.713 372.401 181.949 372.269 183.116 371.787C184.277 371.304 185.276 370.473 186.114 369.295C186.944 368.116 187.515 366.595 187.826 364.731C188.137 362.868 188.091 361.244 187.688 359.859C187.279 358.473 186.603 357.363 185.662 356.529C184.715 355.694 183.589 355.168 182.286 354.95C181.572 354.831 180.869 354.815 180.177 354.901C179.486 354.987 178.839 355.178 178.235 355.473C177.623 355.774 177.081 356.177 176.608 356.681C176.126 357.192 175.747 357.805 175.469 358.522L172.863 358.087C173.243 357.02 173.764 356.095 174.427 355.313C175.091 354.531 175.859 353.899 176.731 353.419C177.602 352.945 178.544 352.63 179.556 352.475C180.561 352.319 181.607 352.331 182.693 352.512C184.528 352.819 186.086 353.539 187.365 354.675C188.645 355.81 189.556 357.272 190.1 359.062C190.644 360.853 190.726 362.882 190.348 365.152C189.969 367.422 189.232 369.315 188.136 370.832C187.041 372.348 185.703 373.435 184.125 374.094C182.546 374.752 180.839 374.928 179.004 374.622C177.918 374.44 176.925 374.113 176.025 373.638C175.117 373.163 174.329 372.556 173.661 371.818C172.99 371.087 172.469 370.244 172.095 369.289C171.721 368.341 171.528 367.297 171.516 366.157Z" fill="white"/>
<path d="M140.699 339.318L143.135 340.637L125.705 356.012L123.307 354.714L126.645 331.713L129.081 333.031L126.074 352.287L126.224 352.368L140.699 339.318ZM135.743 346.327L125.924 341.013L127.04 338.952L136.859 344.266L135.743 346.327Z" fill="white"/>
<path d="M80.5904 313.14C79.8828 313.965 79.6173 314.914 79.7941 315.987C79.9709 317.06 80.5067 318.082 81.4014 319.054C82.0555 319.765 82.7429 320.281 83.4635 320.602C84.1792 320.918 84.8754 321.04 85.5519 320.967C86.2236 320.889 86.8155 320.615 87.3276 320.143C87.7561 319.749 88.0307 319.308 88.1514 318.82C88.262 318.332 88.2701 317.833 88.1757 317.321C88.076 316.814 87.9279 316.323 87.7315 315.848C87.5298 315.377 87.331 314.956 87.1352 314.586L86.0734 312.552C85.7983 312.033 85.5217 311.428 85.2436 310.738C84.9608 310.043 84.7701 309.306 84.6716 308.528C84.563 307.75 84.6255 306.968 84.859 306.184C85.0925 305.399 85.5855 304.661 86.3379 303.968C87.2053 303.169 88.1984 302.675 89.3171 302.485C90.4309 302.29 91.5935 302.436 92.8048 302.924C94.0113 303.406 95.1822 304.263 96.3174 305.497C97.3756 306.646 98.1065 307.812 98.5099 308.995C98.9086 310.173 98.9974 311.307 98.7763 312.399C98.5504 313.485 98.0274 314.464 97.2073 315.335L95.3601 313.328C95.9182 312.718 96.2322 312.052 96.3022 311.332C96.3622 310.61 96.2363 309.886 95.9246 309.16C95.6028 308.433 95.1485 307.75 94.5617 307.113C93.8786 306.371 93.1451 305.815 92.3612 305.446C91.5721 305.082 90.8019 304.927 90.0507 304.981C89.2943 305.04 88.6235 305.339 88.0383 305.878C87.5053 306.369 87.2087 306.917 87.1484 307.522C87.0882 308.128 87.1773 308.77 87.4156 309.449C87.6539 310.127 87.9545 310.82 88.3172 311.529L89.5712 314.024C90.3651 315.61 90.7643 317.076 90.7689 318.424C90.7735 319.771 90.235 320.942 89.1533 321.938C88.2546 322.765 87.2471 323.244 86.1309 323.374C85.0047 323.503 83.8761 323.326 82.7451 322.842C81.604 322.357 80.5621 321.603 79.6193 320.579C78.6669 319.544 78.0058 318.454 77.636 317.307C77.261 316.166 77.1757 315.067 77.3803 314.01C77.5801 312.947 78.0729 312.03 78.8588 311.258L80.5904 313.14Z" fill="white"/>
<path d="M71.0958 269.493L51.1153 278.257L45.8259 266.199L47.9722 265.257L52.2003 274.896L58.9515 271.935L54.9973 262.92L57.1437 261.979L61.0979 270.993L67.8881 268.015L63.5916 258.22L65.7379 257.278L71.0958 269.493Z" fill="white"/>
<path d="M39.5073 211.383C38.442 211.6 37.6496 212.186 37.1301 213.141C36.6106 214.096 36.4054 215.232 36.5145 216.549C36.5943 217.511 36.8198 218.34 37.191 219.037C37.5617 219.726 38.0362 220.249 38.6147 220.608C39.1925 220.959 39.8283 221.106 40.5219 221.048C41.1023 221 41.5899 220.821 41.9846 220.51C42.3717 220.193 42.6851 219.804 42.9247 219.342C43.1573 218.881 43.3422 218.402 43.4792 217.906C43.6092 217.411 43.7106 216.957 43.7833 216.545L44.1949 214.287C44.2966 213.709 44.4497 213.062 44.6541 212.346C44.8579 211.624 45.1599 210.925 45.5601 210.251C45.9527 209.57 46.482 208.991 47.1481 208.516C47.8142 208.04 48.6569 207.76 49.6762 207.676C50.8511 207.578 51.9383 207.798 52.9378 208.335C53.9367 208.866 54.7644 209.695 55.4209 210.823C56.0769 211.945 56.474 213.341 56.6125 215.011C56.7415 216.569 56.6019 217.938 56.1938 219.119C55.7851 220.293 55.1583 221.243 54.3134 221.969C53.4678 222.687 52.454 223.138 51.272 223.322L51.0467 220.604C51.8619 220.465 52.5185 220.133 53.0166 219.607C53.507 219.074 53.8523 218.426 54.0526 217.661C54.2453 216.889 54.3058 216.072 54.2342 215.208C54.151 214.203 53.9134 213.314 53.5215 212.542C53.1226 211.769 52.61 211.174 51.9838 210.756C51.3506 210.338 50.6376 210.162 49.8448 210.227C49.1229 210.287 48.5521 210.537 48.1326 210.978C47.713 211.419 47.3889 211.981 47.1603 212.662C46.9318 213.344 46.743 214.076 46.594 214.858L46.0513 217.597C45.7036 219.336 45.1179 220.739 44.294 221.805C43.4701 222.871 42.3256 223.464 40.8605 223.586C39.6431 223.687 38.5541 223.446 37.5935 222.862C36.6254 222.273 35.8437 221.439 35.2484 220.363C34.6456 219.28 34.2867 218.044 34.1717 216.657C34.0556 215.256 34.2036 213.989 34.6158 212.857C35.021 211.726 35.6289 210.807 36.4397 210.098C37.2498 209.382 38.202 208.961 39.2961 208.835L39.5073 211.383Z" fill="white"/>
<path d="M39.4898 168.123L37.2178 167.547L41.2348 151.684L43.5069 152.26L41.8226 158.911L60.7012 163.691L60.0526 166.252L41.1741 161.472L39.4898 168.123Z" fill="white"/>
<path d="M65.9458 101.45L67.3908 99.2378L79.4846 107.139C80.7332 107.955 81.6557 108.977 82.2522 110.207C82.8466 111.427 83.0786 112.753 82.9481 114.187C82.8117 115.616 82.2754 117.047 81.3392 118.48C80.403 119.913 79.3078 120.979 78.0535 121.678C76.7933 122.374 75.4834 122.697 74.1237 122.649C72.762 122.59 71.4568 122.153 70.2082 121.338L58.1145 113.436L59.5595 111.225L71.4749 119.009C72.3667 119.592 73.2887 119.914 74.2407 119.976C75.1868 120.035 76.096 119.831 76.9683 119.366C77.8385 118.891 78.6058 118.145 79.27 117.128C79.9343 116.112 80.3091 115.109 80.3945 114.122C80.4739 113.13 80.295 112.216 79.8578 111.379C79.4186 110.532 78.753 109.817 77.8611 109.234L65.9458 101.45Z" fill="white"/>
<path d="M113.448 82.9103L108.135 87.0458L94.7337 69.8282L100.282 65.5095C101.953 64.2095 103.65 63.4418 105.375 63.2064C107.095 62.9654 108.771 63.2401 110.404 64.0307C112.032 64.8156 113.539 66.0992 114.927 67.8815C116.322 69.675 117.205 71.4677 117.574 73.2597C117.938 75.0461 117.78 76.7623 117.099 78.4082C116.414 80.0486 115.197 81.5493 113.448 82.9103ZM108.78 83.5735L111.874 81.1655C113.297 80.0575 114.263 78.8646 114.772 77.5868C115.28 76.309 115.37 74.9841 115.04 73.6119C114.71 72.2398 113.999 70.8531 112.909 69.4519C111.827 68.062 110.669 67.042 109.434 66.3921C108.195 65.7366 106.914 65.491 105.593 65.6553C104.268 65.814 102.932 66.4168 101.587 67.4638L98.2582 70.055L108.78 83.5735Z" fill="white"/>
<path d="M142.927 40.5001L145.789 39.5177L154.819 47.1857L155.061 47.1027L157.477 35.5051L160.339 34.5227L157.047 49.2142L159.967 57.7185L157.468 58.5763L154.549 50.072L142.927 40.5001Z" fill="white"/>
<path d="M271.437 46.9741L268.938 46.1162C269.037 45.3467 268.995 44.6265 268.812 43.9556C268.636 43.2869 268.35 42.6779 267.953 42.1286C267.565 41.5749 267.087 41.0955 266.52 40.6907C265.953 40.2858 265.327 39.9658 264.642 39.7306C263.393 39.3016 262.153 39.2288 260.921 39.512C259.697 39.7975 258.575 40.4523 257.555 41.4763C256.542 42.5027 255.729 43.9093 255.115 45.6961C254.502 47.483 254.28 49.0925 254.449 50.5248C254.625 51.9593 255.108 53.1652 255.899 54.1426C256.696 55.1223 257.72 55.8266 258.969 56.2555C259.654 56.4907 260.345 56.6227 261.041 56.6514C261.737 56.68 262.407 56.5984 263.051 56.4065C263.704 56.2102 264.306 55.9023 264.855 55.4827C265.414 55.0587 265.889 54.5161 266.281 53.8547L268.78 54.7126C268.23 55.7027 267.563 56.5289 266.78 57.1912C265.997 57.8535 265.136 58.35 264.197 58.6808C263.259 59.0048 262.279 59.16 261.255 59.1463C260.237 59.135 259.208 58.9506 258.167 58.5932C256.407 57.989 254.989 57.0217 253.914 55.6914C252.839 54.3612 252.18 52.7685 251.939 50.9133C251.697 49.0582 251.95 47.0424 252.697 44.8659C253.444 42.6895 254.483 40.9435 255.813 39.628C257.143 38.3125 258.641 37.4601 260.307 37.0707C261.972 36.6813 263.685 36.7887 265.445 37.3929C266.486 37.7503 267.411 38.237 268.221 38.8529C269.038 39.4711 269.715 40.1993 270.253 41.0374C270.794 41.8688 271.17 42.7863 271.381 43.7899C271.595 44.7868 271.613 45.8482 271.437 46.9741Z" fill="white"/>
<path d="M297.416 78.5197L295.23 76.8184L314.953 64.5215L317.106 66.1966L310.027 88.3349L307.841 86.6336L313.977 68.1353L313.842 68.0306L297.416 78.5197ZM303.458 72.4223L312.269 79.2798L310.829 81.1294L302.018 74.2718L303.458 72.4223Z" fill="white"/>
<path d="M352.397 114.235C353.23 113.537 353.648 112.645 353.651 111.557C353.653 110.47 353.293 109.373 352.57 108.267C352.042 107.459 351.449 106.837 350.791 106.401C350.137 105.971 349.47 105.737 348.791 105.697C348.116 105.663 347.487 105.837 346.904 106.217C346.417 106.536 346.073 106.926 345.874 107.387C345.684 107.85 345.594 108.341 345.603 108.862C345.618 109.378 345.683 109.887 345.799 110.388C345.92 110.886 346.047 111.333 346.179 111.73L346.892 113.912C347.078 114.469 347.251 115.111 347.412 115.837C347.576 116.569 347.643 117.327 347.612 118.111C347.591 118.897 347.401 119.658 347.041 120.393C346.682 121.128 346.074 121.776 345.218 122.335C344.231 122.98 343.17 123.304 342.035 123.307C340.904 123.316 339.782 122.981 338.667 122.301C337.557 121.627 336.543 120.588 335.626 119.185C334.771 117.877 334.243 116.606 334.039 115.373C333.84 114.146 333.939 113.012 334.337 111.972C334.738 110.937 335.415 110.058 336.368 109.334L337.859 111.617C337.208 112.127 336.789 112.732 336.601 113.432C336.424 114.133 336.429 114.868 336.616 115.636C336.814 116.406 337.15 117.154 337.624 117.879C338.175 118.724 338.808 119.393 339.52 119.886C340.238 120.375 340.973 120.655 341.722 120.725C342.478 120.791 343.189 120.606 343.855 120.171C344.462 119.775 344.844 119.283 345.003 118.696C345.163 118.108 345.18 117.46 345.057 116.752C344.933 116.043 344.751 115.31 344.51 114.551L343.684 111.884C343.162 110.189 343.009 108.677 343.227 107.347C343.444 106.018 344.168 104.951 345.399 104.147C346.421 103.479 347.494 103.172 348.616 103.228C349.748 103.286 350.832 103.647 351.868 104.31C352.914 104.976 353.817 105.891 354.579 107.057C355.348 108.234 355.821 109.418 355.997 110.61C356.179 111.797 356.082 112.896 355.706 113.905C355.334 114.92 354.697 115.743 353.795 116.375L352.397 114.235Z" fill="white"/>
<path d="M354.577 158.849L375.728 153.493L378.96 166.258L376.688 166.833L374.104 156.629L366.958 158.439L369.374 167.982L367.102 168.557L364.686 159.015L357.498 160.835L360.124 171.204L357.852 171.779L354.577 158.849Z" fill="white"/>
<path d="M376.17 221.366C377.257 221.327 378.135 220.88 378.804 220.023C379.474 219.166 379.863 218.08 379.972 216.763C380.052 215.801 379.966 214.945 379.715 214.198C379.462 213.457 379.081 212.862 378.569 212.414C378.057 211.972 377.454 211.723 376.76 211.665C376.18 211.617 375.669 211.714 375.229 211.955C374.795 212.204 374.422 212.537 374.109 212.953C373.804 213.369 373.543 213.811 373.326 214.278C373.116 214.745 372.942 215.176 372.802 215.571L372.025 217.73C371.829 218.284 371.572 218.896 371.252 219.568C370.932 220.247 370.519 220.887 370.014 221.486C369.514 222.093 368.897 222.577 368.162 222.936C367.426 223.296 366.549 223.433 365.53 223.349C364.355 223.251 363.319 222.856 362.421 222.161C361.523 221.474 360.843 220.52 360.382 219.298C359.919 218.084 359.757 216.642 359.896 214.971C360.025 213.414 360.388 212.087 360.985 210.989C361.581 209.898 362.356 209.064 363.308 208.487C364.261 207.918 365.335 207.64 366.531 207.653L366.306 210.371C365.479 210.374 364.777 210.594 364.199 211.031C363.627 211.475 363.18 212.058 362.857 212.779C362.54 213.509 362.345 214.305 362.274 215.168C362.191 216.174 362.279 217.089 362.538 217.916C362.804 218.744 363.212 219.415 363.761 219.931C364.316 220.447 364.991 220.739 365.783 220.804C366.505 220.864 367.11 220.711 367.596 220.345C368.082 219.979 368.495 219.479 368.832 218.844C369.17 218.209 369.477 217.518 369.752 216.772L370.738 214.159C371.367 212.501 372.176 211.214 373.164 210.298C374.152 209.382 375.379 208.985 376.844 209.107C378.061 209.208 379.096 209.625 379.947 210.358C380.805 211.099 381.439 212.049 381.849 213.209C382.265 214.377 382.416 215.654 382.301 217.042C382.185 218.443 381.831 219.668 381.238 220.716C380.652 221.765 379.901 222.573 378.985 223.138C378.068 223.711 377.059 223.969 375.959 223.914L376.17 221.366Z" fill="white"/>
<path d="M369.067 264.039L371.213 264.98L364.64 279.965L362.494 279.024L365.25 272.741L347.416 264.918L348.477 262.499L366.311 270.322L369.067 264.039Z" fill="white"/>
<path d="M331.998 325.448L330.209 327.392L319.58 317.608C318.483 316.598 317.741 315.437 317.355 314.126C316.97 312.825 316.959 311.479 317.324 310.086C317.694 308.699 318.458 307.375 319.618 306.116C320.777 304.857 322.033 303.986 323.385 303.502C324.742 303.024 326.088 302.921 327.421 303.192C328.754 303.474 329.97 304.12 331.067 305.13L341.696 314.914L339.906 316.858L329.435 307.218C328.651 306.497 327.794 306.027 326.866 305.809C325.942 305.596 325.012 305.647 324.075 305.962C323.138 306.287 322.259 306.897 321.436 307.79C320.614 308.684 320.079 309.611 319.832 310.571C319.591 311.536 319.617 312.467 319.91 313.365C320.204 314.272 320.743 315.087 321.527 315.808L331.998 325.448Z" fill="white"/>
<path d="M282.092 335.916L288.014 332.711L298.398 351.9L292.214 355.246C290.353 356.254 288.552 356.732 286.812 356.68C285.076 356.635 283.467 356.088 281.988 355.039C280.511 353.997 279.235 352.483 278.16 350.497C277.079 348.498 276.503 346.584 276.435 344.756C276.369 342.934 276.808 341.267 277.75 339.756C278.696 338.251 280.144 336.971 282.092 335.916ZM286.806 336.03L283.358 337.896C281.771 338.755 280.622 339.772 279.91 340.949C279.198 342.126 278.892 343.418 278.992 344.826C279.092 346.233 279.564 347.718 280.409 349.28C281.247 350.829 282.222 352.025 283.333 352.87C284.447 353.72 285.67 354.173 287 354.229C288.333 354.29 289.75 353.915 291.249 353.104L294.959 351.096L286.806 336.03Z" fill="white"/>
<path d="M246.035 372.895L243.05 373.393L235.405 364.344L235.153 364.386L230.861 375.427L227.877 375.925L233.541 361.976L232.062 353.107L234.668 352.672L236.148 361.541L246.035 372.895Z" fill="white"/>
</svg>
