<svg width="131" height="49" viewBox="0 0 131 49" fill="none" xmlns="http://www.w3.org/2000/svg">
<g clip-path="url(#clip0_231_646)">
<path d="M17.3459 42.7821H12.325V33.7918C12.325 33.0057 12.2443 32.3452 12.0828 31.8103C11.9214 31.2753 11.6954 30.8468 11.4048 30.5248C11.1142 30.2027 10.7671 29.9707 10.3635 29.8288C9.95984 29.6869 9.51587 29.6159 9.03154 29.6159C8.41805 29.6159 7.86376 29.7333 7.36866 29.968C6.87356 30.2027 6.45111 30.5248 6.10132 30.9342C5.75152 31.3436 5.48514 31.8321 5.30216 32.3998C5.11919 32.9675 5.02771 33.5843 5.02771 34.2503V42.7821H0.0390625V25.8004H4.05904L4.36578 27.0941C4.7102 26.843 5.09228 26.6055 5.51204 26.3817C5.9318 26.1579 6.37308 25.9641 6.83589 25.8004C7.2987 25.6366 7.77496 25.5056 8.26468 25.4074C8.75439 25.3091 9.25218 25.26 9.75804 25.26C11.0927 25.26 12.2389 25.4537 13.1968 25.8413C14.1547 26.2289 14.9404 26.7856 15.5539 27.5116C16.1674 28.2376 16.6194 29.1192 16.91 30.1563C17.2006 31.1935 17.3459 32.3671 17.3459 33.6771V42.7821ZM17.9993 34.2994C17.9993 33.0548 18.2253 31.884 18.6773 30.7868C19.1294 29.6896 19.7671 28.7316 20.5905 27.9128C21.4138 27.0941 22.3932 26.4472 23.5288 25.9723C24.6643 25.4974 25.9208 25.26 27.2985 25.26C28.6869 25.26 29.9543 25.4974 31.1005 25.9723C32.2468 26.4472 33.2316 27.0941 34.055 27.9128C34.8783 28.7316 35.5187 29.6896 35.9761 30.7868C36.4336 31.884 36.6623 33.0548 36.6623 34.2994L36.6612 34.4677C36.6574 34.7376 36.6443 34.9544 36.6219 35.1182C36.595 35.3147 36.5654 35.5112 36.5331 35.7077H22.9556C23.0955 36.2427 23.3135 36.723 23.6095 37.1488C23.9055 37.5746 24.2499 37.9376 24.6427 38.2378C25.0356 38.538 25.4607 38.77 25.9181 38.9338C26.3756 39.0975 26.8464 39.1794 27.3308 39.1794C28.1165 39.1794 28.7999 39.0102 29.3811 38.6717C29.9623 38.3333 30.4036 37.9021 30.705 37.3781H36.0972C35.8497 38.1204 35.473 38.8491 34.9671 39.5642C34.4613 40.2793 33.837 40.9152 33.0944 41.472C32.3517 42.0288 31.4934 42.4764 30.5193 42.8148C29.5453 43.1532 28.4717 43.3225 27.2985 43.3225C25.9316 43.3225 24.6777 43.085 23.5368 42.6101C22.3959 42.1352 21.4165 41.4884 20.5985 40.6696C19.7805 39.8508 19.1428 38.8928 18.6854 37.7956C18.228 36.6985 17.9993 35.5331 17.9993 34.2994ZM27.3308 29.272C26.2868 29.272 25.4042 29.5395 24.6831 30.0745C23.962 30.6094 23.44 31.3135 23.1171 32.1869H31.3508C31.0386 31.3245 30.5435 30.623 29.8655 30.0826C29.1874 29.5422 28.3425 29.272 27.3308 29.272ZM40.1893 21.1169L43.7734 21.0841V25.8004H48.6329V30.14H43.7734V36.1007C43.7734 36.6248 43.8353 37.0587 43.9591 37.4026C44.0828 37.7465 44.2497 38.0194 44.4595 38.2214C44.6694 38.4234 44.9197 38.5626 45.2103 38.639C45.5009 38.7154 45.813 38.7536 46.1466 38.7536H48.9396L48.9073 42.8967H45.6623C44.7259 42.8967 43.8407 42.8121 43.0065 42.6429C42.1724 42.4737 41.4432 42.1461 40.819 41.6603C40.1947 41.1745 39.7023 40.4922 39.3417 39.6133C38.9812 38.7345 38.8009 37.58 38.8009 36.1499V30.14H36.1371V26.2753L38.6717 25.2927L40.1893 21.1169ZM49.932 25.8004H54.9529V42.7821H49.932V25.8004ZM49.4961 21.2315C49.4961 20.8713 49.566 20.5274 49.706 20.1999C49.8459 19.8723 50.0477 19.5858 50.3114 19.3401C50.5751 19.0945 50.8899 18.9007 51.2558 18.7588C51.6218 18.6169 52.0308 18.5459 52.4828 18.5459C52.9349 18.5459 53.3438 18.6169 53.7098 18.7588C54.0757 18.9007 54.3906 19.0945 54.6542 19.3401C54.9179 19.5858 55.1197 19.8723 55.2597 20.1999C55.3996 20.5274 55.4695 20.8713 55.4695 21.2315C55.4695 21.6027 55.3996 21.9493 55.2597 22.2714C55.1197 22.5934 54.9179 22.8746 54.6542 23.1147C54.3906 23.3549 54.073 23.546 53.7017 23.6879C53.3304 23.8298 52.9187 23.9008 52.4667 23.9008C52.0254 23.9008 51.6218 23.8298 51.2558 23.6879C50.8899 23.546 50.5778 23.3522 50.3195 23.1066C50.0611 22.8609 49.8593 22.5771 49.714 22.255C49.5687 21.933 49.4961 21.5918 49.4961 21.2315ZM56.4619 34.2994C56.4619 33.0548 56.6718 31.884 57.0915 30.7868C57.5113 29.6896 58.1086 28.7316 58.8836 27.9128C59.6585 27.0941 60.6003 26.4472 61.7089 25.9723C62.8174 25.4974 64.0606 25.26 65.4382 25.26C66.5468 25.26 67.5424 25.4428 68.425 25.8086C69.3075 26.1743 70.0555 26.6082 70.669 27.1104L70.8789 25.8004H75.1249V42.7821H70.8789L70.6529 41.4884C70.0286 41.9906 69.2779 42.4218 68.4007 42.7821C67.5236 43.1423 66.5361 43.3225 65.4382 43.3225C64.0713 43.3225 62.8336 43.085 61.725 42.6101C60.6164 42.1352 59.672 41.4911 58.8916 40.6778C58.1113 39.8644 57.5113 38.9092 57.0915 37.812C56.6718 36.7148 56.4619 35.544 56.4619 34.2994ZM61.4505 34.283C61.4505 34.9927 61.5689 35.6368 61.8057 36.2154C62.0425 36.794 62.3627 37.2907 62.7663 37.7056C63.1699 38.1204 63.6435 38.4397 64.187 38.6636C64.7306 38.8874 65.3091 38.9993 65.9226 38.9993C66.5361 38.9993 67.1146 38.8874 67.6581 38.6636C68.2016 38.4397 68.6752 38.1232 69.0788 37.7138C69.4824 37.3044 69.7999 36.8076 70.0313 36.2236C70.2627 35.6395 70.3784 34.9927 70.3784 34.283C70.3784 33.5843 70.26 32.9484 70.0233 32.3752C69.7865 31.8021 69.4663 31.3108 69.0627 30.9014C68.659 30.492 68.1855 30.1754 67.642 29.9516C67.0984 29.7278 66.5199 29.6159 65.9064 29.6159C65.2822 29.6159 64.6983 29.7278 64.1547 29.9516C63.6112 30.1754 63.1403 30.492 62.7421 30.9014C62.3439 31.3108 62.0291 31.8021 61.7976 32.3752C61.5662 32.9484 61.4505 33.5843 61.4505 34.283ZM95.975 34.283C95.975 35.5276 95.7705 36.6985 95.3615 37.7956C94.9525 38.8928 94.3659 39.8508 93.6017 40.6696C92.8376 41.4884 91.9066 42.1352 90.8088 42.6101C89.7109 43.085 88.4732 43.3225 87.0955 43.3225C86.0838 43.3225 85.1824 43.1833 84.3913 42.9049C83.6002 42.6265 82.9033 42.2635 82.3006 41.8159V48.5791H77.312V25.8004H81.3319L81.6548 27.2414C81.967 26.9794 82.3141 26.7283 82.6962 26.4882C83.0782 26.248 83.4953 26.0378 83.9473 25.8577C84.3994 25.6776 84.881 25.5329 85.3923 25.4237C85.9035 25.3146 86.4444 25.26 87.0148 25.26C88.3817 25.26 89.6167 25.4974 90.72 25.9723C91.8232 26.4472 92.7649 27.0913 93.5452 27.9047C94.3256 28.718 94.9256 29.6732 95.3454 30.7704C95.7651 31.8676 95.975 33.0385 95.975 34.283ZM90.9702 34.2994C90.9702 33.5898 90.8545 32.9457 90.6231 32.3671C90.3917 31.7884 90.0742 31.2917 89.6706 30.8769C89.267 30.462 88.7934 30.1427 88.2498 29.9189C87.7063 29.6951 87.1278 29.5832 86.5143 29.5832C85.8901 29.5832 85.3089 29.6951 84.7707 29.9189C84.2326 30.1427 83.7617 30.4593 83.3581 30.8687C82.9545 31.2781 82.637 31.7748 82.4055 32.3589C82.1741 32.9429 82.0584 33.5898 82.0584 34.2994C82.0584 34.9981 82.1768 35.634 82.4136 36.2072C82.6504 36.7803 82.9706 37.2716 83.3742 37.681C83.7778 38.0904 84.2514 38.407 84.7949 38.6308C85.3385 38.8546 85.917 38.9665 86.5305 38.9665C87.1547 38.9665 87.7386 38.8546 88.2821 38.6308C88.8257 38.407 89.2965 38.0931 89.6948 37.6892C90.093 37.2853 90.4051 36.7967 90.6312 36.2236C90.8572 35.6504 90.9702 35.009 90.9702 34.2994ZM115.776 34.283C115.776 35.5276 115.571 36.6985 115.162 37.7956C114.753 38.8928 114.167 39.8508 113.402 40.6696C112.638 41.4884 111.707 42.1352 110.609 42.6101C109.512 43.085 108.274 43.3225 106.896 43.3225C105.884 43.3225 104.983 43.1833 104.192 42.9049C103.401 42.6265 102.704 42.2635 102.101 41.8159V48.5791H97.1126V25.8004H101.133L101.456 27.2414C101.768 26.9794 102.115 26.7283 102.497 26.4882C102.879 26.248 103.296 26.0378 103.748 25.8577C104.2 25.6776 104.682 25.5329 105.193 25.4237C105.704 25.3146 106.245 25.26 106.815 25.26C108.182 25.26 109.417 25.4974 110.521 25.9723C111.624 26.4472 112.566 27.0913 113.346 27.9047C114.126 28.718 114.726 29.6732 115.146 30.7704C115.566 31.8676 115.776 33.0385 115.776 34.283ZM110.771 34.2994C110.771 33.5898 110.655 32.9457 110.424 32.3671C110.192 31.7884 109.875 31.2917 109.471 30.8769C109.068 30.462 108.594 30.1427 108.051 29.9189C107.507 29.6951 106.928 29.5832 106.315 29.5832C105.691 29.5832 105.11 29.6951 104.571 29.9189C104.033 30.1427 103.562 30.4593 103.159 30.8687C102.755 31.2781 102.438 31.7748 102.206 32.3589C101.975 32.9429 101.859 33.5898 101.859 34.2994C101.859 34.9981 101.978 35.634 102.214 36.2072C102.451 36.7803 102.771 37.2716 103.175 37.681C103.579 38.0904 104.052 38.407 104.596 38.6308C105.139 38.8546 105.718 38.9665 106.331 38.9665C106.955 38.9665 107.539 38.8546 108.083 38.6308C108.626 38.407 109.097 38.0931 109.495 37.6892C109.894 37.2853 110.206 36.7967 110.432 36.2236C110.658 35.6504 110.771 35.009 110.771 34.2994ZM120.465 37.4763C120.508 37.9894 120.769 38.4043 121.248 38.7209C121.727 39.0375 122.332 39.1958 123.064 39.1958C124.012 39.1958 124.695 39.0702 125.115 38.8191C125.534 38.568 125.744 38.2132 125.744 37.7547C125.744 37.4818 125.647 37.2607 125.454 37.0915C125.26 36.9223 124.975 36.7722 124.598 36.6411C124.25 36.5202 123.829 36.4086 123.335 36.3063L122.845 36.2069C122.385 36.112 121.871 36.0001 121.305 35.8715C120.982 35.806 120.627 35.7268 120.239 35.634C119.852 35.5412 119.467 35.4157 119.085 35.2574C118.703 35.0991 118.334 34.9026 117.979 34.6679C117.624 34.4331 117.309 34.1411 117.034 33.7918C116.76 33.4424 116.542 33.0248 116.381 32.539C116.219 32.0532 116.138 31.4828 116.138 30.8277C116.138 29.9653 116.292 29.1874 116.598 28.4942C116.905 27.8009 117.371 27.2169 117.995 26.742C118.619 26.2671 119.405 25.9014 120.352 25.6448C121.299 25.3882 122.413 25.26 123.694 25.26C124.738 25.26 125.677 25.3964 126.511 25.6694C127.345 25.9423 128.053 26.3299 128.634 26.832C129.215 27.3342 129.659 27.9319 129.966 28.6252C130.273 29.3184 130.426 30.0799 130.426 30.9096L125.421 30.8932C125.389 30.4784 125.195 30.1209 124.84 29.8206C124.485 29.5204 123.985 29.3703 123.339 29.3703C122.575 29.3703 122.01 29.5122 121.644 29.7961C121.278 30.0799 121.1 30.4074 121.111 30.7786C121.111 30.997 121.173 31.1798 121.297 31.3272C121.42 31.4746 121.614 31.6001 121.878 31.7038C122.141 31.8076 122.478 31.8976 122.887 31.974L123.081 32.0093C123.448 32.074 123.873 32.1386 124.356 32.2033C125.238 32.3561 126.078 32.539 126.874 32.7519C127.671 32.9648 128.373 33.2595 128.981 33.6362C129.589 34.0128 130.071 34.5041 130.426 35.11C130.781 35.7159 130.959 36.4828 130.959 37.4108C130.959 38.4261 130.76 39.3077 130.362 40.0555C129.963 40.8033 129.406 41.4229 128.691 41.9141C127.975 42.4054 127.122 42.7684 126.132 43.0031C125.142 43.2379 124.055 43.3552 122.871 43.3552C121.579 43.3552 120.473 43.1805 119.553 42.8312C118.633 42.4818 117.877 42.0261 117.285 41.4638C116.693 40.9016 116.257 40.2684 115.977 39.5642C115.697 38.8601 115.557 38.1586 115.557 37.4599L120.465 37.4763Z" fill="#D8D8D8"/>
</g>
<path fill-rule="evenodd" clip-rule="evenodd" d="M81.2181 0H74.4342C74.4095 0 74.3853 0.00601431 74.3637 0.0174777C74.2918 0.0555926 74.2651 0.143546 74.304 0.213921L81.3444 12.9476C83.8605 17.4982 88.7201 20.3332 94.0046 20.3332C94.2357 20.3332 94.4511 20.3325 94.655 20.3308C94.859 20.3325 95.0744 20.3332 95.3055 20.3332C100.59 20.3332 105.45 17.4982 107.966 12.9476L115.006 0.213921C115.045 0.143546 115.018 0.0555926 114.946 0.0174777C114.925 0.00601431 114.901 0 114.876 0H108.092C103.75 0 99.749 2.30132 97.6343 6.01442L94.655 11.2458L91.6757 6.01442C89.5611 2.30132 85.5597 0 81.2181 0Z" fill="#A72020"/>
<defs>
<clipPath id="clip0_231_646">
<rect width="131" height="30.3537" fill="white" transform="translate(0 18.3721)"/>
</clipPath>
</defs>
</svg>
