<svg width="41" height="41" viewBox="0 0 41 41" fill="none" xmlns="http://www.w3.org/2000/svg">
<g opacity="0.5">
<path d="M22.2565 3.41699C24.1784 3.42212 25.1538 3.43237 25.996 3.45628L26.3275 3.46824C26.7101 3.48191 27.0877 3.49899 27.5438 3.51949C29.3615 3.60491 30.6017 3.89191 31.6899 4.31387C32.8174 4.74778 33.7673 5.33545 34.7171 6.28358C35.5858 7.13756 36.2579 8.17058 36.6868 9.31074C37.1088 10.399 37.3958 11.6392 37.4812 13.4586C37.5017 13.913 37.5187 14.2905 37.5324 14.6749L37.5427 15.0063C37.5683 15.8468 37.5785 16.8223 37.582 18.7442L37.5837 20.0186V22.2565C37.5879 23.5026 37.5748 24.7486 37.5444 25.9943L37.5341 26.3257C37.5205 26.7101 37.5034 27.0877 37.4829 27.5421C37.3975 29.3615 37.107 30.6 36.6868 31.6899C36.2592 32.8307 35.5868 33.864 34.7171 34.7171C33.8629 35.5855 32.8299 36.2576 31.6899 36.6868C30.6017 37.1087 29.3615 37.3957 27.5438 37.4812C27.1384 37.5002 26.733 37.5173 26.3275 37.5324L25.996 37.5427C25.1538 37.5666 24.1784 37.5785 22.2565 37.582L20.9821 37.5837H18.7459C17.4992 37.588 16.2526 37.5749 15.0063 37.5444L14.6749 37.5341C14.2694 37.5188 13.8639 37.5011 13.4586 37.4812C11.6409 37.3957 10.4007 37.1087 9.31075 36.6868C8.17073 36.2586 7.13812 35.5864 6.28529 34.7171C5.41583 33.8634 4.74305 32.8303 4.31388 31.6899C3.89192 30.6017 3.60492 29.3615 3.5195 27.5421C3.50047 27.1367 3.48338 26.7313 3.46825 26.3257L3.45971 25.9943C3.42823 24.7486 3.41399 23.5026 3.417 22.2565V18.7442C3.41223 17.4981 3.42476 16.252 3.45458 15.0063L3.46654 14.6749C3.48021 14.2905 3.49729 13.913 3.51779 13.4586C3.60321 11.6392 3.89021 10.4007 4.31217 9.31074C4.74115 8.16941 5.41527 7.13607 6.287 6.28358C7.13962 5.41484 8.17154 4.74264 9.31075 4.31387C10.4007 3.89191 11.6392 3.60491 13.4586 3.51949C13.913 3.49899 14.2923 3.48191 14.6749 3.46824L15.0063 3.45799C16.252 3.42764 17.4981 3.41454 18.7442 3.4187L22.2565 3.41699ZM20.5003 11.9587C18.2349 11.9587 16.0623 12.8586 14.4605 14.4605C12.8586 16.0623 11.9587 18.2349 11.9587 20.5003C11.9587 22.7657 12.8586 24.9383 14.4605 26.5402C16.0623 28.1421 18.2349 29.042 20.5003 29.042C22.7657 29.042 24.9383 28.1421 26.5402 26.5402C28.1421 24.9383 29.042 22.7657 29.042 20.5003C29.042 18.2349 28.1421 16.0623 26.5402 14.4605C24.9383 12.8586 22.7657 11.9587 20.5003 11.9587ZM20.5003 15.3753C21.1734 15.3752 21.8398 15.5077 22.4617 15.7651C23.0835 16.0226 23.6485 16.4 24.1245 16.8758C24.6005 17.3516 24.9781 17.9165 25.2357 18.5383C25.4934 19.16 25.6261 19.8264 25.6262 20.4995C25.6263 21.1725 25.4938 21.839 25.2364 22.4608C24.9789 23.0826 24.6015 23.6477 24.1257 24.1236C23.6499 24.5996 23.085 24.9772 22.4632 25.2349C21.8415 25.4925 21.1751 25.6252 20.502 25.6253C19.1428 25.6253 17.8392 25.0854 16.8781 24.1242C15.917 23.1631 15.377 21.8596 15.377 20.5003C15.377 19.1411 15.917 17.8375 16.8781 16.8764C17.8392 15.9153 19.1428 15.3753 20.502 15.3753M29.4708 9.39616C28.9044 9.39616 28.3613 9.62114 27.9608 10.0216C27.5604 10.4221 27.3354 10.9652 27.3354 11.5316C27.3354 12.0979 27.5604 12.6411 27.9608 13.0415C28.3613 13.442 28.9044 13.667 29.4708 13.667C30.0371 13.667 30.5803 13.442 30.9808 13.0415C31.3812 12.6411 31.6062 12.0979 31.6062 11.5316C31.6062 10.9652 31.3812 10.4221 30.9808 10.0216C30.5803 9.62114 30.0371 9.39616 29.4708 9.39616Z" fill="white"/>
</g>
</svg>
