<svg width="41" height="41" viewBox="0 0 41 41" fill="none" xmlns="http://www.w3.org/2000/svg">
<g opacity="0.5" clip-path="url(#clip0_231_668)">
<path fill-rule="evenodd" clip-rule="evenodd" d="M30.75 5.125C32.1092 5.125 33.4128 5.66495 34.3739 6.62608C35.335 7.5872 35.875 8.89077 35.875 10.25V30.75C35.875 32.1092 35.335 33.4128 34.3739 34.3739C33.4128 35.335 32.1092 35.875 30.75 35.875H10.25C8.89077 35.875 7.5872 35.335 6.62608 34.3739C5.66495 33.4128 5.125 32.1092 5.125 30.75V10.25C5.125 8.89077 5.66495 7.5872 6.62608 6.62608C7.5872 5.66495 8.89077 5.125 10.25 5.125H30.75ZM13.6667 17.0833C13.2136 17.0833 12.7791 17.2633 12.4587 17.5837C12.1383 17.9041 11.9583 18.3386 11.9583 18.7917V27.3333C11.9583 27.7864 12.1383 28.2209 12.4587 28.5413C12.7791 28.8617 13.2136 29.0417 13.6667 29.0417C14.1197 29.0417 14.5543 28.8617 14.8746 28.5413C15.195 28.2209 15.375 27.7864 15.375 27.3333V18.7917C15.375 18.3386 15.195 17.9041 14.8746 17.5837C14.5543 17.2633 14.1197 17.0833 13.6667 17.0833ZM18.7917 15.375C18.3386 15.375 17.9041 15.555 17.5837 15.8754C17.2633 16.1957 17.0833 16.6303 17.0833 17.0833V27.3333C17.0833 27.7864 17.2633 28.2209 17.5837 28.5413C17.9041 28.8617 18.3386 29.0417 18.7917 29.0417C19.2447 29.0417 19.6793 28.8617 19.9996 28.5413C20.32 28.2209 20.5 27.7864 20.5 27.3333V21.0808C21.021 20.4932 21.9008 19.803 22.8797 19.3845C23.4486 19.1419 24.3045 19.0428 24.899 19.2307C25.0962 19.2807 25.2718 19.3934 25.3995 19.5519C25.4883 19.6715 25.625 19.938 25.625 20.5V27.3333C25.625 27.7864 25.805 28.2209 26.1254 28.5413C26.4457 28.8617 26.8803 29.0417 27.3333 29.0417C27.7864 29.0417 28.2209 28.8617 28.5413 28.5413C28.8617 28.2209 29.0417 27.7864 29.0417 27.3333V20.5C29.0417 19.3554 28.7512 18.3372 28.1465 17.5207C27.59 16.7802 26.8112 16.2372 25.924 15.9712C24.383 15.4878 22.6764 15.756 21.537 16.2445C21.1719 16.4008 20.8165 16.5788 20.4727 16.7775C20.4011 16.3839 20.1936 16.0279 19.8864 15.7716C19.5792 15.5153 19.1917 15.3749 18.7917 15.375ZM13.6667 11.9583C13.2136 11.9583 12.7791 12.1383 12.4587 12.4587C12.1383 12.7791 11.9583 13.2136 11.9583 13.6667C11.9583 14.1197 12.1383 14.5543 12.4587 14.8746C12.7791 15.195 13.2136 15.375 13.6667 15.375C14.1197 15.375 14.5543 15.195 14.8746 14.8746C15.195 14.5543 15.375 14.1197 15.375 13.6667C15.375 13.2136 15.195 12.7791 14.8746 12.4587C14.5543 12.1383 14.1197 11.9583 13.6667 11.9583Z" fill="white"/>
</g>
<defs>
<clipPath id="clip0_231_668">
<rect width="41" height="41" fill="white"/>
</clipPath>
</defs>
</svg>
