<svg width="164" height="61" viewBox="0 0 164 61" fill="none" xmlns="http://www.w3.org/2000/svg">
<g clip-path="url(#clip0_17_192)">
<path d="M21.7155 53.5595H15.4297V42.3044C15.4297 41.3204 15.3287 40.4935 15.1265 39.8238C14.9244 39.1541 14.6415 38.6177 14.2777 38.2145C13.9139 37.8113 13.4793 37.5209 12.974 37.3432C12.4687 37.1655 11.9129 37.0767 11.3066 37.0767C10.5385 37.0767 9.84463 37.2236 9.22481 37.5175C8.60499 37.8113 8.07613 38.2145 7.63821 38.727C7.2003 39.2395 6.86681 39.8511 6.63775 40.5619C6.40868 41.2726 6.29415 42.0448 6.29415 42.8785V53.5595H0.0488281V32.3H5.08147L5.46549 33.9195C5.89667 33.6052 6.375 33.3079 6.9005 33.0277C7.426 32.7476 7.97844 32.505 8.55783 32.3C9.13723 32.0949 9.73346 31.9309 10.3465 31.8079C10.9596 31.6849 11.5828 31.6234 12.2161 31.6234C13.8869 31.6234 15.3219 31.866 16.5211 32.3512C17.7203 32.8364 18.704 33.5334 19.472 34.4423C20.24 35.3512 20.8059 36.4548 21.1698 37.7532C21.5336 39.0516 21.7155 40.5208 21.7155 42.1609V53.5595ZM22.5334 42.94C22.5334 41.3819 22.8163 39.9161 23.3822 38.5425C23.9482 37.1689 24.7465 35.9696 25.7773 34.9446C26.8081 33.9195 28.0342 33.1097 29.4558 32.5152C30.8773 31.9207 32.4504 31.6234 34.1751 31.6234C35.9133 31.6234 37.4999 31.9207 38.9349 32.5152C40.3699 33.1097 41.6028 33.9195 42.6336 34.9446C43.6644 35.9696 44.4661 37.1689 45.0388 38.5425C45.6114 39.9161 45.8978 41.3819 45.8978 42.94L45.8963 43.1507C45.8917 43.4886 45.8753 43.76 45.8472 43.965C45.8135 44.211 45.7765 44.457 45.7361 44.7031H28.7383C28.9134 45.3728 29.1863 45.9741 29.5568 46.5071C29.9274 47.0402 30.3585 47.4946 30.8504 47.8705C31.3422 48.2463 31.8744 48.5367 32.4471 48.7417C33.0197 48.9468 33.6092 49.0493 34.2156 49.0493C35.1992 49.0493 36.0548 48.8374 36.7824 48.4137C37.51 47.99 38.0625 47.4502 38.4397 46.7941H45.1904C44.8804 47.7235 44.4088 48.6358 43.7756 49.531C43.1423 50.4262 42.3608 51.2224 41.431 51.9194C40.5013 52.6164 39.4267 53.1768 38.2073 53.6005C36.9879 54.0242 35.6438 54.236 34.1751 54.236C32.4639 54.236 30.8942 53.9387 29.4659 53.3442C28.0376 52.7497 26.8114 51.9399 25.7874 50.9148C24.7633 49.8898 23.965 48.6905 23.3923 47.3169C22.8197 45.9434 22.5334 44.4844 22.5334 42.94ZM34.2156 36.6462C32.9085 36.6462 31.8037 36.981 30.9009 37.6507C29.9981 38.3204 29.3446 39.2019 28.9404 40.2953H39.2482C38.8574 39.2156 38.2376 38.3375 37.3887 37.661C36.5399 36.9844 35.4821 36.6462 34.2156 36.6462ZM50.3133 26.4367L54.8002 26.3957V32.3H60.8838V37.7327H54.8002V45.1951C54.8002 45.8511 54.8777 46.3944 55.0326 46.8249C55.1876 47.2554 55.3964 47.5971 55.6592 47.85C55.9219 48.1028 56.2352 48.2771 56.599 48.3727C56.9628 48.4684 57.3536 48.5162 57.7713 48.5162H61.2679L61.2274 53.703H57.1649C55.9927 53.703 54.8844 53.5971 53.8402 53.3852C52.7959 53.1734 51.883 52.7634 51.1015 52.1552C50.32 51.547 49.7036 50.6928 49.2522 49.5925C48.8008 48.4923 48.5751 47.047 48.5751 45.2566V37.7327H45.2402V32.8945L48.4134 31.6644L50.3133 26.4367ZM62.5102 32.3H68.7959V53.5595H62.5102V32.3ZM61.9645 26.5802C61.9645 26.1292 62.0521 25.6986 62.2272 25.2886C62.4024 24.8786 62.655 24.5198 62.9852 24.2123C63.3153 23.9048 63.7094 23.6622 64.1675 23.4845C64.6257 23.3069 65.1377 23.218 65.7036 23.218C66.2695 23.218 66.7815 23.3069 67.2397 23.4845C67.6978 23.6622 68.0919 23.9048 68.422 24.2123C68.7522 24.5198 69.0048 24.8786 69.18 25.2886C69.3551 25.6986 69.4427 26.1292 69.4427 26.5802C69.4427 27.0449 69.3551 27.4788 69.18 27.882C69.0048 28.2852 68.7522 28.6371 68.422 28.9378C68.0919 29.2385 67.6944 29.4777 67.2296 29.6553C66.7647 29.833 66.2493 29.9218 65.6834 29.9218C65.1309 29.9218 64.6257 29.833 64.1675 29.6553C63.7094 29.4777 63.3187 29.2351 62.9953 28.9275C62.6719 28.62 62.4193 28.2647 62.2373 27.8615C62.0554 27.4583 61.9645 27.0312 61.9645 26.5802ZM70.6851 42.94C70.6851 41.3819 70.9478 39.9161 71.4733 38.5425C71.9988 37.1689 72.7466 35.9696 73.7168 34.9446C74.6869 33.9195 75.8659 33.1097 77.2538 32.5152C78.6416 31.9207 80.1979 31.6234 81.9226 31.6234C83.3105 31.6234 84.5568 31.8523 85.6617 32.3102C86.7666 32.7681 87.7031 33.3113 88.4711 33.94L88.7338 32.3H94.0494V53.5595H88.7338L88.4509 51.9399C87.6694 52.5686 86.7295 53.1085 85.6314 53.5595C84.5332 54.0105 83.297 54.236 81.9226 54.236C80.2114 54.236 78.6618 53.9387 77.274 53.3442C75.8861 52.7497 74.7038 51.9433 73.7269 50.9251C72.75 49.9069 71.9988 48.711 71.4733 47.3374C70.9478 45.9639 70.6851 44.498 70.6851 42.94ZM76.9304 42.9195C76.9304 43.8078 77.0786 44.6142 77.375 45.3386C77.6715 46.063 78.0723 46.6848 78.5776 47.2042C79.0829 47.7235 79.6758 48.1233 80.3562 48.4035C81.0367 48.6837 81.7609 48.8237 82.5289 48.8237C83.297 48.8237 84.0212 48.6837 84.7017 48.4035C85.3821 48.1233 85.975 47.7269 86.4803 47.2144C86.9856 46.7019 87.383 46.08 87.6727 45.3488C87.9624 44.6176 88.1073 43.8078 88.1073 42.9195C88.1073 42.0448 87.9591 41.2486 87.6626 40.5311C87.3662 39.8136 86.9653 39.1985 86.4601 38.686C85.9548 38.1735 85.3619 37.7771 84.6814 37.497C84.001 37.2168 83.2768 37.0767 82.5087 37.0767C81.7272 37.0767 80.9962 37.2168 80.3158 37.497C79.6353 37.7771 79.0458 38.1735 78.5473 38.686C78.0487 39.1985 77.6546 39.8136 77.3649 40.5311C77.0752 41.2486 76.9304 42.0448 76.9304 42.9195ZM120.152 42.9195C120.152 44.4775 119.896 45.9434 119.384 47.3169C118.872 48.6905 118.137 49.8898 117.181 50.9148C116.224 51.9399 115.059 52.7497 113.684 53.3442C112.31 53.9387 110.76 54.236 109.036 54.236C107.769 54.236 106.64 54.0618 105.65 53.7132C104.66 53.3647 103.787 52.9103 103.033 52.3499V60.8168H96.7874V32.3H101.82L102.224 34.104C102.615 33.776 103.05 33.4617 103.528 33.161C104.006 32.8603 104.528 32.5972 105.094 32.3717C105.66 32.1462 106.263 31.9651 106.903 31.8284C107.543 31.6918 108.22 31.6234 108.934 31.6234C110.646 31.6234 112.192 31.9207 113.573 32.5152C114.954 33.1097 116.133 33.9161 117.11 34.9343C118.087 35.9526 118.838 37.1484 119.364 38.522C119.889 39.8956 120.152 41.3614 120.152 42.9195ZM113.886 42.94C113.886 42.0516 113.741 41.2452 113.452 40.5208C113.162 39.7965 112.765 39.1746 112.259 38.6553C111.754 38.1359 111.161 37.7361 110.481 37.456C109.8 37.1758 109.076 37.0357 108.308 37.0357C107.526 37.0357 106.799 37.1758 106.125 37.456C105.451 37.7361 104.862 38.1325 104.357 38.645C103.851 39.1575 103.454 39.7794 103.164 40.5106C102.874 41.2418 102.73 42.0516 102.73 42.94C102.73 43.8147 102.878 44.6108 103.174 45.3283C103.471 46.0459 103.872 46.6609 104.377 47.1734C104.882 47.6859 105.475 48.0823 106.155 48.3625C106.836 48.6427 107.56 48.7827 108.328 48.7827C109.11 48.7827 109.841 48.6427 110.521 48.3625C111.202 48.0823 111.791 47.6894 112.29 47.1837C112.788 46.678 113.179 46.0664 113.462 45.3488C113.745 44.6313 113.886 43.8283 113.886 42.94ZM144.94 42.9195C144.94 44.4775 144.684 45.9434 144.172 47.3169C143.66 48.6905 142.926 49.8898 141.969 50.9148C141.013 51.9399 139.847 52.7497 138.473 53.3442C137.098 53.9387 135.549 54.236 133.824 54.236C132.558 54.236 131.429 54.0618 130.439 53.7132C129.448 53.3647 128.576 52.9103 127.821 52.3499V60.8168H121.576V32.3H126.609L127.013 34.104C127.404 33.776 127.838 33.4617 128.317 33.161C128.795 32.8603 129.317 32.5972 129.883 32.3717C130.449 32.1462 131.052 31.9651 131.692 31.8284C132.332 31.6918 133.009 31.6234 133.723 31.6234C135.434 31.6234 136.981 31.9207 138.362 32.5152C139.743 33.1097 140.922 33.9161 141.899 34.9343C142.876 35.9526 143.627 37.1484 144.152 38.522C144.678 39.8956 144.94 41.3614 144.94 42.9195ZM138.675 42.94C138.675 42.0516 138.53 41.2452 138.24 40.5208C137.951 39.7965 137.553 39.1746 137.048 38.6553C136.543 38.1359 135.95 37.7361 135.269 37.456C134.589 37.1758 133.865 37.0357 133.097 37.0357C132.315 37.0357 131.587 37.1758 130.914 37.456C130.24 37.7361 129.651 38.1325 129.145 38.645C128.64 39.1575 128.242 39.7794 127.953 40.5106C127.663 41.2418 127.518 42.0516 127.518 42.94C127.518 43.8147 127.666 44.6108 127.963 45.3283C128.259 46.0459 128.66 46.6609 129.165 47.1734C129.671 47.6859 130.264 48.0823 130.944 48.3625C131.624 48.6427 132.349 48.7827 133.117 48.7827C133.898 48.7827 134.629 48.6427 135.31 48.3625C135.99 48.0823 136.58 47.6894 137.078 47.1837C137.577 46.678 137.967 46.0664 138.25 45.3488C138.533 44.6313 138.675 43.8283 138.675 42.94ZM150.811 46.9172C150.865 47.5595 151.192 48.0789 151.791 48.4752C152.391 48.8716 153.149 49.0698 154.065 49.0698C155.251 49.0698 156.107 48.9126 156.632 48.5982C157.158 48.2839 157.42 47.8397 157.42 47.2657C157.42 46.924 157.299 46.6472 157.057 46.4354C156.814 46.2235 156.457 46.0356 155.985 45.8716C155.55 45.7202 155.023 45.5805 154.404 45.4524L153.791 45.328C153.214 45.2091 152.572 45.0691 151.862 44.9081C151.458 44.8261 151.013 44.727 150.528 44.6108C150.043 44.4946 149.561 44.3375 149.083 44.1393C148.605 43.9411 148.143 43.6951 147.699 43.4012C147.254 43.1074 146.86 42.7418 146.516 42.3044C146.173 41.8671 145.9 41.3443 145.698 40.7361C145.496 40.1279 145.395 39.4138 145.395 38.5938C145.395 37.514 145.587 36.5402 145.971 35.6724C146.355 34.8045 146.937 34.0733 147.719 33.4788C148.5 32.8842 149.484 32.4264 150.67 32.1052C151.855 31.784 153.25 31.6234 154.853 31.6234C156.16 31.6234 157.336 31.7943 158.38 32.1359C159.425 32.4776 160.311 32.9628 161.038 33.5915C161.766 34.2202 162.322 34.9685 162.706 35.8364C163.09 36.7043 163.282 37.6575 163.282 38.6963L157.016 38.6758C156.976 38.1564 156.733 37.7088 156.288 37.3329C155.844 36.9571 155.217 36.7692 154.409 36.7692C153.452 36.7692 152.745 36.9468 152.287 37.3022C151.829 37.6575 151.606 38.0676 151.62 38.5323C151.62 38.8056 151.697 39.0345 151.852 39.219C152.007 39.4035 152.25 39.5607 152.58 39.6906C152.91 39.8204 153.331 39.9332 153.843 40.0288L154.086 40.073C154.546 40.1539 155.078 40.2349 155.682 40.3158C156.787 40.5072 157.838 40.7361 158.835 41.0026C159.832 41.2691 160.711 41.6381 161.473 42.1097C162.234 42.5812 162.837 43.1962 163.282 43.9548C163.726 44.7133 163.949 45.6734 163.949 46.8352C163.949 48.1062 163.699 49.2098 163.201 50.1461C162.702 51.0823 162.005 51.8579 161.109 52.4729C160.213 53.088 159.145 53.5424 157.905 53.8362C156.666 54.1301 155.305 54.277 153.823 54.277C152.206 54.277 150.821 54.0583 149.669 53.621C148.517 53.1836 147.571 52.613 146.83 51.9091C146.088 51.2053 145.543 50.4126 145.192 49.531C144.842 48.6495 144.667 47.7714 144.667 46.8967L150.811 46.9172Z" fill="#D8D8D8"/>
</g>
<path fill-rule="evenodd" clip-rule="evenodd" d="M101.678 0H93.1853C93.1545 0 93.1242 0.00752937 93.0971 0.0218805C93.0071 0.0695968 92.9737 0.179707 93.0224 0.26781L101.836 16.2092C104.986 21.9061 111.07 25.4553 117.686 25.4553C117.975 25.4553 118.245 25.4545 118.5 25.4523C118.755 25.4545 119.025 25.4553 119.314 25.4553C125.93 25.4553 132.014 21.9061 135.164 16.2092L143.978 0.26781C144.026 0.179707 143.993 0.0695968 143.903 0.0218805C143.876 0.00752937 143.846 0 143.815 0H135.322C129.887 0 124.877 2.88105 122.23 7.5295L118.5 14.0787L114.77 7.5295C112.123 2.88105 107.113 0 101.678 0Z" fill="#9B2532"/>
<defs>
<clipPath id="clip0_17_192">
<rect width="164" height="38" fill="white" transform="translate(0 23)"/>
</clipPath>
</defs>
</svg>
