<svg width="111" height="101" viewBox="0 0 111 101" fill="none" xmlns="http://www.w3.org/2000/svg">
<path d="M100.856 4.85568C85.9757 14.1557 75.5597 30.5237 77.0477 42.7997C79.6517 60.2837 105.32 48.7517 110.528 73.3037C113.132 86.3237 104.576 97.8557 92.2997 100.088C76.3037 103.064 64.0277 90.0437 61.0517 72.5597C54.7277 39.8237 77.0477 12.6677 98.2517 0.763672L100.856 4.85568ZM1.53173 72.5597C-4.79227 39.8237 17.8997 12.6677 38.7317 1.1357L41.3357 5.22768C26.8277 14.1557 16.0397 30.8957 17.5277 43.1717C20.1317 60.6557 45.7997 49.1237 51.0077 73.3037C53.6117 86.3237 45.0557 98.2277 32.7797 100.46C16.7837 103.436 4.50773 90.0437 1.53173 72.5597Z" fill="url(#paint0_linear_267_237)"/>
<defs>
<linearGradient id="paint0_linear_267_237" x1="-10.0002" y1="136" x2="626" y2="136" gradientUnits="userSpaceOnUse">
<stop stop-color="#1C219F"/>
<stop offset="1" stop-color="#999999"/>
</linearGradient>
</defs>
</svg>
