<svg width="21" height="21" viewBox="0 0 21 21" fill="none" xmlns="http://www.w3.org/2000/svg">
<path d="M20.7191 12.4454C20.6149 12.3409 20.4842 12.2668 20.341 12.231C20.1979 12.1953 20.0477 12.1991 19.9066 12.2422C18.3573 12.7106 16.71 12.7499 15.1402 12.3559C13.5704 11.9618 12.1368 11.1493 10.9924 10.0049C9.84793 8.8604 9.0354 7.42688 8.64139 5.85706C8.24738 4.28724 8.28665 2.63993 8.75502 1.09067C8.79848 0.949496 8.80265 0.799147 8.76706 0.655788C8.73146 0.51243 8.65747 0.381486 8.55302 0.277038C8.44857 0.172591 8.31763 0.0985926 8.17427 0.0630013C8.03091 0.02741 7.88056 0.0315725 7.73939 0.0750409C5.59747 0.73118 3.71705 2.04616 2.36572 3.83285C1.18395 5.40185 0.463103 7.26929 0.28416 9.22539C0.105218 11.1815 0.47527 13.1487 1.35274 14.9061C2.23022 16.6635 3.58035 18.1414 5.25145 19.1737C6.92255 20.206 8.84841 20.752 10.8127 20.7501C13.1043 20.7571 15.3349 20.0121 17.1624 18.6295C18.9491 17.2782 20.264 15.3977 20.9202 13.2558C20.9631 13.1152 20.9671 12.9655 20.9317 12.8228C20.8963 12.68 20.8228 12.5496 20.7191 12.4454ZM16.1853 17.3315C14.4644 18.6277 12.3332 19.2587 10.1839 19.1082C8.03474 18.9577 6.01222 18.0359 4.48872 16.5125C2.96522 14.9891 2.04328 12.9667 1.89261 10.8175C1.74195 8.6683 2.3727 6.53702 3.66877 4.81598C4.51316 3.70088 5.60482 2.79696 6.85783 2.17535C6.78645 2.67629 6.75047 3.18163 6.75017 3.68762C6.75313 6.48806 7.86691 9.17296 9.84712 11.1532C11.8273 13.1334 14.5122 14.2472 17.3127 14.2501C17.8197 14.25 18.326 14.214 18.828 14.1425C18.2058 15.3957 17.3012 16.4874 16.1853 17.3315Z" fill="black"/>
</svg>
