<svg width="26" height="26" viewBox="0 0 26 26" fill="none" xmlns="http://www.w3.org/2000/svg">
<path d="M23.7191 14.4454C23.6149 14.3409 23.4842 14.2668 23.341 14.231C23.1979 14.1953 23.0477 14.1991 22.9066 14.2422C21.3573 14.7106 19.71 14.7499 18.1402 14.3559C16.5704 13.9618 15.1368 13.1493 13.9924 12.0049C12.8479 10.8604 12.0354 9.42688 11.6414 7.85706C11.2474 6.28724 11.2867 4.63993 11.755 3.09067C11.7985 2.9495 11.8026 2.79915 11.7671 2.65579C11.7315 2.51243 11.6575 2.38149 11.553 2.27704C11.4486 2.17259 11.3176 2.09859 11.1743 2.063C11.0309 2.02741 10.8806 2.03157 10.7394 2.07504C8.59747 2.73118 6.71705 4.04616 5.36572 5.83285C4.18395 7.40185 3.4631 9.26929 3.28416 11.2254C3.10522 13.1815 3.47527 15.1487 4.35274 16.9061C5.23022 18.6635 6.58035 20.1414 8.25145 21.1737C9.92255 22.206 11.8484 22.752 13.8127 22.7501C16.1043 22.7571 18.3349 22.0121 20.1624 20.6295C21.9491 19.2782 23.264 17.3977 23.9202 15.2558C23.9631 15.1152 23.9671 14.9655 23.9317 14.8228C23.8963 14.68 23.8228 14.5496 23.7191 14.4454ZM19.1853 19.3315C17.4644 20.6277 15.3332 21.2587 13.1839 21.1082C11.0347 20.9577 9.01222 20.0359 7.48872 18.5125C5.96522 16.9891 5.04328 14.9667 4.89261 12.8175C4.74195 10.6683 5.3727 8.53702 6.66877 6.81598C7.51316 5.70088 8.60482 4.79696 9.85783 4.17535C9.78645 4.67629 9.75047 5.18163 9.75017 5.68762C9.75313 8.48806 10.8669 11.173 12.8471 13.1532C14.8273 15.1334 17.5122 16.2472 20.3127 16.2501C20.8197 16.25 21.326 16.214 21.828 16.1425C21.2058 17.3957 20.3012 18.4874 19.1853 19.3315Z" fill="white"/>
</svg>
