<svg width="321" height="317" viewBox="0 0 321 317" fill="none" xmlns="http://www.w3.org/2000/svg">
<path d="M122.894 271.437C125.507 272.316 127.591 273.481 129.146 274.933C130.663 276.402 131.647 278.033 132.096 279.824C132.537 281.644 132.439 283.499 131.803 285.389L126.882 283.734C127.172 282.872 127.221 281.945 127.028 280.952C126.836 279.959 126.306 279.006 125.436 278.095C124.557 277.211 123.214 276.466 121.407 275.858C119.767 275.306 118.339 275.089 117.123 275.206C115.88 275.314 114.877 275.673 114.115 276.283C113.325 276.884 112.771 277.657 112.453 278.602C112.06 279.77 112.243 280.884 113 281.943C113.749 283.031 115.096 283.994 117.042 284.834L119.988 286.15C122.721 287.317 124.669 288.932 125.832 290.994C126.986 293.085 127.147 295.367 126.315 297.841C125.679 299.732 124.682 301.223 123.325 302.314C121.94 303.395 120.296 304.049 118.394 304.276C116.483 304.531 114.443 304.293 112.274 303.564C110.05 302.816 108.253 301.763 106.884 300.405C105.505 299.074 104.614 297.537 104.211 295.792C103.77 294.065 103.882 292.215 104.546 290.241L109.467 291.896C109.168 292.786 109.11 293.695 109.293 294.623C109.439 295.569 109.872 296.442 110.594 297.242C111.315 298.042 112.371 298.676 113.761 299.143C115.095 299.592 116.287 299.73 117.336 299.556C118.356 299.374 119.216 298.982 119.913 298.381C120.61 297.78 121.104 297.048 121.394 296.186C121.74 295.157 121.659 294.109 121.152 293.041C120.635 292.001 119.594 291.14 118.028 290.458L115.11 289.198C113.025 288.311 111.33 287.231 110.026 285.956C108.684 284.7 107.788 283.316 107.338 281.803C106.86 280.28 106.91 278.657 107.49 276.933C108.126 275.043 109.201 273.547 110.716 272.448C112.204 271.339 114 270.689 116.106 270.5C118.185 270.302 120.447 270.614 122.894 271.437Z" fill="white"/>
<path d="M89.7317 253.952C92.0438 255.709 93.7389 257.623 94.817 259.695C95.854 261.773 96.4155 263.894 96.5016 266.06C96.5876 268.225 96.3224 270.271 95.7059 272.197C95.0483 274.129 94.1871 275.796 93.1222 277.197L92.5365 277.968C91.3652 279.509 89.9252 280.846 88.2167 281.979C86.4848 283.095 84.5908 283.866 82.5347 284.293C80.4375 284.726 78.267 284.697 76.0231 284.208C73.7559 283.701 71.5012 282.595 69.2592 280.891C67.0171 279.188 65.3598 277.32 64.2873 275.29C63.2148 273.259 62.6061 271.175 62.4612 269.039C62.2986 266.926 62.5344 264.894 63.1686 262.945C63.7795 260.977 64.6706 259.223 65.842 257.681L66.4277 256.911C67.4926 255.509 68.8793 254.242 70.5878 253.109C72.2786 251.999 74.1787 251.196 76.288 250.699C78.374 250.184 80.5683 250.157 82.871 250.617C85.156 251.101 87.4429 252.212 89.7317 253.952ZM86.7766 257.84C85.3753 256.775 83.9189 256.074 82.4074 255.736C80.8959 255.398 79.4059 255.371 77.9375 255.655C76.469 255.939 75.1014 256.502 73.8347 257.345C72.5446 258.17 71.4115 259.224 70.4354 260.509C69.406 261.863 68.6667 263.273 68.2174 264.737C67.7504 266.224 67.5855 267.701 67.7229 269.169C67.8192 270.642 68.2415 272.05 68.9898 273.392C69.7381 274.734 70.8129 275.938 72.2142 277.003C73.6155 278.068 75.063 278.781 76.5568 279.142C78.0505 279.504 79.5316 279.543 81.0001 279.259C82.4509 278.998 83.8301 278.443 85.1379 277.595C86.4046 276.752 87.5527 275.654 88.5821 274.299C89.5582 273.015 90.2826 271.649 90.7552 270.203C91.2045 268.739 91.3693 267.262 91.2497 265.771C91.1301 264.28 90.705 262.852 89.9744 261.486C89.2438 260.12 88.1779 258.905 86.7766 257.84Z" fill="white"/>
<path d="M68.747 235.26L42.5343 253.824L39.4828 249.515L65.6955 230.952L68.747 235.26ZM54.8931 239.68L51.1587 242.324L43.4538 231.444L47.1882 228.8L54.8931 239.68ZM43.7258 247.588L39.9914 250.233L31.905 238.814L35.6394 236.17L43.7258 247.588Z" fill="white"/>
<path d="M50.9465 204.775L24.4353 214.78L22.5712 209.84L49.0824 199.835L50.9465 204.775ZM28.6141 223.361L24.2504 225.008L15.6599 202.242L20.0235 200.596L28.6141 223.361Z" fill="white"/>
<path d="M42.5515 176.1L10.56 184.981L10.4788 179.526L39.0143 172.017L37.9866 173.924L37.9153 169.129L39.0019 171.181L11.5525 165.912L11.4832 161.249L42.4239 167.521L42.5515 176.1ZM42.2649 156.831L11.5342 164.68L11.4616 159.797L38.7304 152.923L37.7046 154.962L37.6333 150.167L38.7186 152.131L9.98419 146.265L9.90698 141.074L42.136 148.164L42.2649 156.831Z" fill="white"/>
<path d="M44.2551 133.88L18.1604 112.025L21.2443 103.83L55.3973 104.271L53.4757 109.377L23.1285 108.817L24.835 107.155L22.9599 112.138L22.8186 109.64L46.1147 128.938L44.2551 133.88ZM38.3443 123.851L34.6504 120.675L39.3925 108.073L44.2797 108.079L38.3443 123.851Z" fill="white"/>
<path d="M60.7496 96.0951L35.4599 75.938L38.7509 71.8091L64.0406 91.9662L60.7496 96.0951ZM73.0358 80.6805L55.6284 79.8598L59.3582 75.1803L76.9575 75.7602L73.0358 80.6805ZM54.2314 86.3423L50.7563 83.5724L55.9669 77.0349C56.7531 76.0485 57.2346 75.0444 57.4114 74.0225C57.5653 72.9823 57.433 71.9953 57.0144 71.0615C56.6141 70.1048 55.9437 69.2516 55.0033 68.502C54.0857 67.7707 53.116 67.3166 52.0941 67.1398C51.0905 66.9401 50.0988 67.0312 49.1192 67.4132C48.1395 67.7952 47.2566 68.4794 46.4704 69.4657L41.2597 76.0032L37.6813 73.151L42.4532 67.1641C43.989 65.2372 45.6218 63.8004 47.3518 62.8536C49.0588 61.8885 50.8081 61.4822 52.5995 61.6347C54.391 61.7872 56.2043 62.5948 58.0394 64.0575L58.5899 64.4963C60.425 65.9589 61.6075 67.5579 62.1375 69.2932C62.6857 71.0055 62.6798 72.8013 62.1197 74.6806C61.5779 76.5369 60.5391 78.4285 59.0033 80.3553L54.2314 86.3423Z" fill="white"/>
<path d="M84.8243 69.3441L66.3272 43.0848L70.6078 40.0695L89.1049 66.3289L84.8243 69.3441ZM88.3855 66.8356L85.7503 63.0946L98.0526 54.4288L100.688 58.1699L88.3855 66.8356ZM80.3025 55.3607L77.6673 51.6196L88.9624 43.6633L91.5976 47.4044L80.3025 55.3607ZM72.5236 44.3174L69.8884 40.5763L81.8669 32.1386L84.5021 35.8796L72.5236 44.3174Z" fill="white"/>
<path d="M128.961 46.6059L128.022 41.8131L135.233 40.3996C136.989 40.0554 138.504 39.4744 139.778 38.6566C141.047 37.8101 142.072 36.7871 142.853 35.5878C143.635 34.3884 144.137 33.0643 144.361 31.6155C144.609 30.1322 144.577 28.599 144.267 27.0158C143.934 25.3174 143.376 23.8426 142.592 22.5912C141.838 21.3342 140.875 20.3123 139.705 19.5255C138.534 18.7386 137.207 18.2215 135.724 17.9743C134.235 17.6982 132.613 17.7323 130.857 18.0765L123.646 19.49L122.706 14.6972L129.485 13.3683C132.335 12.8097 134.895 12.7562 137.166 13.2078C139.465 13.6538 141.464 14.4726 143.162 15.6642C144.861 16.8557 146.236 18.3049 147.288 20.0118C148.34 21.7186 149.058 23.5508 149.441 25.5082L149.628 26.4581C149.989 28.3004 150.007 30.2247 149.683 32.2312C149.354 34.2089 148.63 36.0844 147.513 37.8578C146.39 39.6023 144.854 41.144 142.905 42.4827C140.978 43.7869 138.59 44.7184 135.74 45.277L128.961 46.6059ZM124.644 47.4523L118.389 15.5436L123.57 14.5279L129.825 46.4366L124.644 47.4523Z" fill="white"/>
<path d="M163.211 42.2208L166.512 10.2709L171.72 10.809L168.419 42.7589L163.211 42.2208ZM167.543 42.6685L168.014 38.1167L182.982 39.6634L182.512 44.2152L167.543 42.6685ZM168.986 28.7068L169.456 24.1551L183.199 25.5751L182.729 30.1269L168.986 28.7068ZM170.375 15.2704L170.845 10.7186L185.419 12.2246L184.949 16.7763L170.375 15.2704Z" fill="white"/>
<path d="M200.685 49.6114L202.952 15.8485L207.964 17.8918L205.739 47.8229L204.311 46.1956L208.956 48.0894L206.635 48.1883L225.32 24.9686L230.21 26.9621L208.875 52.9505L200.685 49.6114Z" fill="white"/>
<path d="M226.375 62.4106L246.355 37.2609L250.454 40.5179L230.475 65.6676L226.375 62.4106ZM229.786 65.1202L232.632 61.5372L244.415 70.8976L241.568 74.4805L229.786 65.1202ZM238.517 54.1301L241.363 50.5472L252.181 59.1412L249.334 62.7241L238.517 54.1301ZM246.919 43.5535L249.765 39.9705L261.238 49.0845L258.391 52.6675L246.919 43.5535Z" fill="white"/>
<path d="M249.591 83.0961L275.276 63.8086L278.446 68.0306L252.762 87.3182L249.591 83.0961ZM252.234 86.6145L255.998 83.7875L264.585 95.2223L260.821 98.0493L252.234 86.6145Z" fill="white"/>
<path d="M270.513 121.038C269.546 118.3 269.182 115.769 269.419 113.445C269.694 111.14 270.391 109.059 271.508 107.202C272.626 105.345 273.972 103.782 275.545 102.511C277.156 101.258 278.791 100.339 280.451 99.7527L281.364 99.4305C283.189 98.7861 285.127 98.4598 287.177 98.4516C289.237 98.471 291.243 98.8672 293.196 99.64C295.186 100.431 296.984 101.647 298.59 103.289C300.206 104.958 301.482 107.12 302.42 109.776C303.357 112.431 303.716 114.902 303.496 117.188C303.277 119.474 302.641 121.55 301.588 123.414C300.563 125.269 299.25 126.837 297.649 128.118C296.058 129.426 294.349 130.402 292.524 131.047L291.611 131.369C289.951 131.955 288.096 132.252 286.046 132.26C284.023 132.258 281.994 131.886 279.959 131.142C277.933 130.426 276.085 129.244 274.414 127.594C272.77 125.934 271.47 123.749 270.513 121.038ZM275.119 119.413C275.704 121.072 276.536 122.459 277.613 123.571C278.69 124.684 279.92 125.526 281.304 126.095C282.687 126.664 284.139 126.945 285.66 126.937C287.191 126.956 288.718 126.698 290.239 126.161C291.843 125.594 293.235 124.823 294.415 123.847C295.622 122.861 296.571 121.717 297.263 120.415C297.992 119.131 298.412 117.723 298.525 116.19C298.637 114.657 298.4 113.061 297.814 111.401C297.228 109.742 296.411 108.351 295.361 107.228C294.312 106.105 293.095 105.259 291.712 104.69C290.357 104.111 288.9 103.816 287.341 103.806C285.82 103.815 284.257 104.102 282.652 104.668C281.131 105.205 279.776 105.948 278.586 106.897C277.407 107.873 276.457 109.017 275.738 110.328C275.019 111.64 274.59 113.067 274.45 114.609C274.31 116.152 274.533 117.753 275.119 119.413Z" fill="white"/>
<path d="M288.522 152.332L293.142 152.249L293.263 158.936C293.288 160.343 293.573 161.497 294.117 162.397C294.691 163.325 295.452 164.03 296.4 164.512C297.377 164.993 298.466 165.223 299.669 165.201C300.901 165.179 301.981 164.91 302.911 164.394C303.87 163.878 304.604 163.146 305.115 162.198C305.627 161.279 305.87 160.116 305.844 158.708L305.724 152.021L310.343 151.938L310.453 158.009C310.501 160.678 310.101 162.929 309.254 164.763C308.437 166.627 307.245 168.042 305.679 169.009C304.142 170.005 302.288 170.522 300.118 170.562L299.414 170.574C297.273 170.613 295.402 170.163 293.801 169.224C292.2 168.314 290.943 166.943 290.03 165.111C289.146 163.308 288.68 161.072 288.632 158.403L288.522 152.332ZM277.929 148.123L310.263 147.538L310.359 152.818L278.024 153.402L277.929 148.123Z" fill="white"/>
<path d="M277.49 181.163L308.025 191.131L305.813 197.907L283.799 199.978L283.567 200.689L300.146 215.265L297.907 222.125L267.373 212.158L268.997 207.18L295.056 215.687L294.809 216.161L277.866 201.281L279.668 195.76L302.155 193.658L302.047 194.271L275.988 185.764L277.49 181.163Z" fill="white"/>
<path d="M260.229 223.571L285.975 242.776L282.844 246.973L257.098 227.768L260.229 223.571ZM257.624 227.062L261.292 229.798L252.295 241.86L248.627 239.124L257.624 227.062ZM268.875 235.455L272.543 238.191L264.282 249.265L260.614 246.529L268.875 235.455ZM279.703 243.531L283.371 246.267L274.61 258.012L270.942 255.276L279.703 243.531Z" fill="white"/>
<path d="M240.777 247.782L259.466 273.905L252.452 278.923L224.269 265.165L223.088 266.01L223.343 264.854L239.856 287.935L235.776 290.854L217.087 264.73L224.173 259.661L252.356 273.42L253.537 272.575L253.282 273.731L236.769 250.65L240.777 247.782Z" fill="white"/>
<path d="M199.19 271.756L207.891 298.723L202.866 300.344L194.165 273.377L199.19 271.756ZM216.665 294.967L218.098 299.406L194.941 306.877L193.509 302.438L216.665 294.967Z" fill="white"/>
</svg>
